#!OML:ASF E:\Steps\Project 1\Capture day 1\Session 2\Subject.ASF
:FULLY-SPECIFIED
:DEGREES
475
root 11.9624 18.8237 16.6701 -152.858 -0.473041 176.914
lowerback -30.6906 -2.06951 -8.43938
upperback -3.53937 -0.966587 -1.10696
thorax 12.0669 -1.31988 2.87221
lowerneck -4.30143 -2.48587 -0.0801866
upperneck -4.94954 -3.5037 4.29876
head -0.726618 -1.90722 1.31506
rclavicle -3.23025e-015 -4.96962e-014
rhumerus -37.0853 -17.2842 -77.8899
rradius 28.0279
rwrist 0.234349
rhand -9.51638 -411.933
rfingers 7.12502
rthumb -163.551 98.7444
lclavicle -3.23025e-015 -4.96962e-014
lhumerus -31.6349 3.54966 81.3858
lradius 20.0994
lwrist -2.59432
lhand -23.18 -11.5336
lfingers 7.12502
lthumb 3.26931 18.4211
rfemur -22.6363 5.12643 17.1788
rtibia 4.97607
rfoot -16.7618 0.0790847
rtoes -8.88617
lfemur -21.902 -6.48372 -25.7876
ltibia 7.00888
lfoot -7.85632 -0.923126
ltoes -36.3764
476
root 11.9635 18.8239 16.6669 -152.883 -0.556123 176.892
lowerback -30.6474 -2.09572 -8.44699
upperback -3.56026 -1.00803 -1.0686
thorax 12.0301 -1.33767 2.90327
lowerneck -4.26514 -2.45738 -0.187356
upperneck -5.05969 -3.46124 4.33944
head -0.765347 -1.88837 1.34873
rclavicle -9.19379e-015 2.90226e-014
rhumerus -37.046 -17.2581 -77.8749
rradius 28.0386
rwrist 0.255124
rhand -9.52312 -413.103
rfingers 7.12502
rthumb -163.557 97.574
lclavicle -9.19379e-015 2.90226e-014
lhumerus -31.5713 3.89622 81.3157
lradius 19.9516
lwrist -2.91965
lhand -23.0761 -11.5267
lfingers 7.12502
lthumb 3.3696 18.4264
rfemur -22.6272 5.17226 17.1621
rtibia 5.08014
rfoot -16.8723 -0.0170384
rtoes -8.79558
lfemur -21.867 -6.42151 -25.8165
ltibia 7.01576
lfoot -7.81444 -1.06991
ltoes -35.7432
477
root 11.9656 18.8233 16.6611 -152.951 -0.727534 176.912
lowerback -30.598 -2.12578 -8.4268
upperback -3.55722 -1.05629 -1.02767
thorax 12.0193 -1.35588 2.92015
lowerneck -4.18386 -2.47565 -0.207043
upperneck -5.23029 -3.48549 4.37404
head -0.830366 -1.90707 1.36685
rclavicle 4.91992e-015 -1.98785e-015
rhumerus -37.098 -17.4592 -77.7614
rradius 28.0529
rwrist 0.440749
rhand -9.28461 -413.114
rfingers 7.12502
rthumb -163.328 97.5818
lclavicle 4.91992e-015 -1.98785e-015
lhumerus -31.5664 4.0396 81.2891
lradius 19.9176
lwrist -3.0682
lhand -23.0474 -11.3827
lfingers 7.12502
lthumb 3.3973 18.57
rfemur -22.4733 5.33015 17.202
rtibia 5.03856
rfoot -16.909 -0.304059
rtoes -8.81293
lfemur -21.7873 -6.46029 -25.7496
ltibia 7.04897
lfoot -7.84256 -1.13411
ltoes -35.6163
478
root 11.9694 18.8209 16.6547 -152.964 -0.881806 177.024
lowerback -30.6293 -2.10481 -8.31292
upperback -3.55949 -1.06551 -0.986896
thorax 12.0336 -1.35453 2.8996
lowerneck -4.19242 -2.43287 -0.263264
upperneck -5.28431 -3.42709 4.42728
head -0.845412 -1.87965 1.39441
rclavicle -2.98177e-016 3.37934e-014
rhumerus -37.1179 -17.5905 -77.688
rradius 27.9921
rwrist 0.470686
rhand -9.23623 -412.654
rfingers 7.12502
rthumb -163.281 98.0455
lclavicle -2.98177e-016 3.37934e-014
lhumerus -31.5726 3.93558 81.3284
lradius 19.9439
lwrist -2.98122
lhand -23.1219 -11.3495
lfingers 7.12502
lthumb 3.32534 18.6043
rfemur -22.3549 5.50496 17.3439
rtibia 4.90686
rfoot -16.8586 -0.517785
rtoes -8.56392
lfemur -21.7696 -6.59418 -25.5306
ltibia 7.07302
lfoot -7.9262 -1.05505
ltoes -35.4647
479
root 11.9732 18.8192 16.6488 -152.957 -0.98861 177.113
lowerback -30.6684 -2.08594 -8.22889
upperback -3.58671 -1.0749 -0.949207
thorax 12.0221 -1.35603 2.89108
lowerneck -4.18028 -2.36636 -0.395287
upperneck -5.26507 -3.33002 4.60314
head -0.839086 -1.83038 1.47337
rclavicle 1.43125e-014 0
rhumerus -37.1214 -17.498 -77.6878
rradius 27.8952
rwrist 0.355315
rhand -9.35234 -412.305
rfingers 7.12502
rthumb -163.393 98.3853
lclavicle 1.43125e-014 0
lhumerus -31.5908 3.91051 81.3299
lradius 19.9581
lwrist -2.93237
lhand -23.0737 -11.3089
lfingers 7.12502
lthumb 3.37196 18.6442
rfemur -22.3128 5.48165 17.4775
rtibia 4.83339
rfoot -16.8273 -0.465288
rtoes -8.09911
lfemur -21.7568 -6.71047 -25.351
ltibia 7.033
lfoot -7.90914 -1.0374
ltoes -34.6717
480
root 11.9721 18.8182 16.6446 -152.905 -1.06107 177.09
lowerback -30.6441 -2.06638 -8.19842
upperback -3.7047 -1.09007 -0.972893
thorax 11.878 -1.36413 2.84433
lowerneck -4.0676 -2.3388 -0.460716
upperneck -5.22709 -3.28332 4.69391
head -0.844885 -1.80503 1.51516
rclavicle 5.1684e-015 -3.49861e-014
rhumerus -37.339 -17.519 -77.633
rradius 27.9213
rwrist 0.433455
rhand -9.28765 -412.063
rfingers 7.12502
rthumb -163.33 98.6327
lclavicle 5.1684e-015 -3.49861e-014
lhumerus -31.6761 3.98864 81.2126
lradius 19.9098
lwrist -2.90821
lhand -22.8966 -11.3002
lfingers 7.12502
lthumb 3.54295 18.6501
rfemur -22.347 5.23049 17.5083
rtibia 4.8331
rfoot -16.7894 -0.239198
rtoes -7.40351
lfemur -21.7839 -6.70349 -25.3921
ltibia 7.00939
lfoot -7.84463 -1.15555
ltoes -34.372
481
root 11.9765 18.8168 16.638 -152.93 -1.0765 177.19
lowerback -30.5166 -1.98265 -8.06862
upperback -3.84861 -1.06437 -1.00954
thorax 11.6575 -1.34638 2.75018
lowerneck -3.92001 -2.27988 -0.541453
upperneck -5.20031 -3.19304 4.80289
head -0.860859 -1.75836 1.56655
rclavicle 1.74434e-014 -3.26007e-014
rhumerus -37.6243 -17.7107 -77.5828
rradius 27.9375
rwrist 0.669621
rhand -9.37785 -411.968
rfingers 7.12502
rthumb -163.417 98.7204
lclavicle 1.74434e-014 -3.26007e-014
lhumerus -31.7965 3.94582 81.0404
lradius 19.8409
lwrist -2.68539
lhand -22.6522 -11.5526
lfingers 7.12502
lthumb 3.77898 18.3936
rfemur -22.3486 5.54896 17.5984
rtibia 4.94909
rfoot -16.8659 -0.533976
rtoes -7.38171
lfemur -21.7281 -6.59397 -25.2774
ltibia 6.98741
lfoot -7.84667 -1.13287
ltoes -34.7566
482
root 11.9774 18.8164 16.6318 -152.952 -1.03601 177.178
lowerback -30.6721 -1.97133 -8.13877
upperback -3.75865 -0.997957 -0.97048
thorax 11.8196 -1.32104 2.84978
lowerneck -4.09741 -2.27826 -0.526936
upperneck -5.08565 -3.19592 4.6808
head -0.797441 -1.75355 1.52043
rclavicle -5.41688e-015 1.27222e-014
rhumerus -37.4193 -17.7462 -77.5702
rradius 27.8359
rwrist 0.745237
rhand -9.7565 -411.74
rfingers 7.12502
rthumb -163.782 98.9186
lclavicle -5.41688e-015 1.27222e-014
lhumerus -31.5686 4.14178 81.0374
lradius 19.7416
lwrist -2.71013
lhand -22.5743 -11.6131
lfingers 7.12502
lthumb 3.85417 18.3318
rfemur -22.3801 5.60554 17.5973
rtibia 5.12828
rfoot -17.0196 -0.630057
rtoes -8.33134
lfemur -21.6586 -6.5732 -25.3114
ltibia 6.94667
lfoot -7.85906 -1.06982
ltoes -34.9019
483
root 11.9767 18.8138 16.6271 -152.867 -0.935205 177.111
lowerback -30.7255 -1.89302 -8.10218
upperback -3.85483 -0.924513 -1.08725
thorax 11.722 -1.29195 2.7305
lowerneck -3.89844 -2.31657 -0.578214
upperneck -5.17542 -3.23832 4.85337
head -0.854125 -1.7798 1.58862
rclavicle 9.24349e-015 1.51076e-014
rhumerus -37.5346 -17.5511 -77.765
rradius 27.8723
rwrist 0.568649
rhand -9.95811 -411.682
rfingers 7.12502
rthumb -163.976 98.9612
lclavicle 9.24349e-015 1.51076e-014
lhumerus -31.682 4.15314 80.8623
lradius 19.777
lwrist -2.79641
lhand -22.7183 -11.1801
lfingers 7.12502
lthumb 3.71516 18.7672
rfemur -22.5325 5.41322 17.5333
rtibia 5.25033
rfoot -17.0876 -0.399636
rtoes -8.38337
lfemur -21.7081 -6.59614 -25.4178
ltibia 6.91341
lfoot -7.91875 -1.03125
ltoes -34.8878
484
root 11.9774 18.8103 16.6236 -152.757 -0.854711 177.102
lowerback -31.1161 -1.9003 -8.21574
upperback -3.71851 -0.847856 -1.0144
thorax 12.0347 -1.27112 2.88659
lowerneck -4.20714 -2.33573 -0.444437
upperneck -4.85102 -3.27477 4.52624
head -0.707758 -1.78282 1.45126
rclavicle 9.79014e-015 1.27222e-014
rhumerus -37.2767 -17.2433 -77.8462
rradius 27.9241
rwrist 0.137811
rhand -9.97167 -411.954
rfingers 7.12502
rthumb -163.989 98.6881
lclavicle 9.79014e-015 1.27222e-014
lhumerus -31.3969 4.39468 80.9246
lradius 19.6714
lwrist -3.01145
lhand -22.9548 -10.8678
lfingers 7.12502
lthumb 3.48678 19.0834
rfemur -22.6946 5.37226 17.5058
rtibia 5.30862
rfoot -17.0765 -0.299666
rtoes -8.08004
lfemur -21.7858 -6.55079 -25.4415
ltibia 6.85657
lfoot -7.94237 -1.06026
ltoes -34.3418
485
root 11.981 18.8106 16.6181 -152.794 -0.910577 177.095
lowerback -31.2077 -1.93649 -8.28211
upperback -3.65915 -0.855669 -0.965237
thorax 12.1425 -1.27871 2.96926
lowerneck -4.35123 -2.38427 -0.373126
upperneck -4.77895 -3.34778 4.46184
head -0.661804 -1.81755 1.41456
rclavicle -6.90777e-015 9.14409e-015
rhumerus -37.2062 -16.9715 -77.9535
rradius 28.0096
rwrist -0.177772
rhand -10.1093 -412.016
rfingers 7.12502
rthumb -164.122 98.6146
lclavicle -6.90777e-015 9.14409e-015
lhumerus -31.2482 4.58774 80.8944
lradius 19.53
lwrist -3.11146
lhand -23.1153 -10.8515
lfingers 7.12502
lthumb 3.33177 19.1022
rfemur -22.5735 5.45435 17.5251
rtibia 5.20526
rfoot -17.0253 -0.45818
rtoes -8.00736
lfemur -21.7096 -6.46454 -25.4319
ltibia 6.83035
lfoot -7.88417 -1.20118
ltoes -33.5175
486
root 11.9835 18.8114 16.6121 -152.866 -0.989922 177.073
lowerback -31.0516 -1.95711 -8.31301
upperback -3.74688 -0.904294 -0.947552
thorax 11.9816 -1.29901 2.99064
lowerneck -4.41947 -2.4765 -0.211695
upperneck -4.59905 -3.47768 4.30164
head -0.597044 -1.87664 1.33149
rclavicle 2.55935e-015 -1.11319e-014
rhumerus -37.389 -16.7039 -78.0426
rradius 28.1724
rwrist -0.382477
rhand -10.3061 -412.393
rfingers 7.12502
rthumb -164.311 98.2234
lclavicle 2.55935e-015 -1.11319e-014
lhumerus -31.3643 4.77142 80.8013
lradius 19.4679
lwrist -3.23451
lhand -23.06 -10.9432
lfingers 7.12502
lthumb 3.38512 19.0097
rfemur -22.3827 5.44608 17.5576
rtibia 5.05701
rfoot -16.9576 -0.527551
rtoes -7.68471
lfemur -21.6027 -6.43246 -25.4535
ltibia 6.86999
lfoot -7.92508 -1.27377
ltoes -33.5839
487
root 11.9845 18.8088 16.609 -152.816 -0.970357 177.11
lowerback -30.7793 -1.87901 -8.25632
upperback -4.02174 -0.907578 -0.973599
thorax 11.5538 -1.29669 2.93937
lowerneck -4.24564 -2.41274 -0.196435
upperneck -4.3235 -3.37838 4.27519
head -0.543639 -1.81548 1.32077
rclavicle -1.0635e-014 -1.94809e-014
rhumerus -37.7442 -16.5722 -78.0464
rradius 28.2125
rwrist -0.470791
rhand -10.3587 -412.75
rfingers 7.12502
rthumb -164.362 97.8626
lclavicle -1.0635e-014 -1.94809e-014
lhumerus -31.7295 4.80232 80.6758
lradius 19.4912
lwrist -3.35161
lhand -22.8667 -10.9648
lfingers 7.12502
lthumb 3.57184 18.985
rfemur -22.4336 5.3739 17.6251
rtibia 5.05772
rfoot -16.9382 -0.430517
rtoes -7.58625
lfemur -21.6312 -6.47314 -25.4105
ltibia 6.85907
lfoot -7.98683 -1.15929
ltoes -33.809
488
root 11.9849 18.8054 16.6061 -152.73 -0.918512 177.126
lowerback -31.4003 -1.8961 -8.31494
upperback -3.67397 -0.790672 -0.913028
thorax 12.2001 -1.25705 3.0626
lowerneck -4.29438 -2.50401 -0.30675
upperneck -4.94736 -3.51268 4.46841
head -0.720283 -1.90778 1.4071
rclavicle -3.55328e-015 1.47101e-014
rhumerus -37.0781 -16.8657 -78.0235
rradius 27.9671
rwrist -0.331718
rhand -10.1677 -412.6
rfingers 7.12502
rthumb -164.178 98.0262
lclavicle -3.55328e-015 1.47101e-014
lhumerus -31.0632 5.00166 80.7889
lradius 19.2659
lwrist -3.58351
lhand -22.7203 -11.1282
lfingers 7.12502
lthumb 3.71324 18.8192
rfemur -22.572 5.32605 17.6297
rtibia 5.13223
rfoot -16.988 -0.320037
rtoes -7.74492
lfemur -21.6837 -6.51998 -25.3915
ltibia 6.78815
lfoot -7.94786 -1.05559
ltoes -33.6795
489
root 11.9878 18.8069 16.6049 -152.739 -0.879956 177.055
lowerback -31.22 -1.85895 -8.34336
upperback -3.81489 -0.773808 -1.00464
thorax 11.9585 -1.24913 2.98989
lowerneck -4.31357 -2.41251 -0.216962
upperneck -4.51474 -3.38409 4.29278
head -0.590716 -1.82556 1.33117
rclavicle 6.16232e-015 -3.4191e-014
rhumerus -37.1849 -17.2289 -77.9528
rradius 27.7156
rwrist 0.0327848
rhand -9.84693 -412.298
rfingers 7.12502
rthumb -163.869 98.3529
lclavicle 6.16232e-015 -3.4191e-014
lhumerus -31.1855 5.09195 80.5645
lradius 19.1023
lwrist -3.7367
lhand -22.7117 -11.5316
lfingers 7.12502
lthumb 3.7215 18.4157
rfemur -22.5875 5.36872 17.5511
rtibia 5.17622
rfoot -17.0477 -0.333825
rtoes -7.88607
lfemur -21.6613 -6.34838 -25.512
ltibia 6.77866
lfoot -7.91441 -1.26569
ltoes -33.7536
